<svg version="1.1" xmlns="http://www.w3.org/2000/svg" style="display: block;" viewBox="0 0 2048 1346" width="1000" height="657" preserveAspectRatio="none">
<defs>
	<linearGradient id="Gradient1" gradientUnits="userSpaceOnUse" x1="78.8128" y1="1205.85" x2="688.321" y2="277.572">
		<stop class="stop0" offset="0" stop-opacity="1" stop-color="rgb(19,44,187)"/>
		<stop class="stop1" offset="1" stop-opacity="1" stop-color="rgb(51,150,227)"/>
	</linearGradient>
	<linearGradient id="Gradient2" gradientUnits="userSpaceOnUse" x1="1553.3" y1="421.634" x2="1784.82" y2="101.877">
		<stop class="stop0" offset="0" stop-opacity="1" stop-color="rgb(65,193,243)"/>
		<stop class="stop1" offset="1" stop-opacity="1" stop-color="rgb(75,229,255)"/>
	</linearGradient>
	<linearGradient id="Gradient3" gradientUnits="userSpaceOnUse" x1="914.788" y1="1303.73" x2="1568.12" y2="397.935">
		<stop class="stop0" offset="0" stop-opacity="1" stop-color="rgb(30,81,201)"/>
		<stop class="stop1" offset="1" stop-opacity="1" stop-color="rgb(66,195,244)"/>
	</linearGradient>
</defs>
<path transform="translate(0,0)" fill="url(#Gradient3)" d="M 1347.98 1.13271 L 1392.03 1.04319 C 1414.88 1.93393 1437.6 2.87967 1460.32 5.69307 C 1565.25 18.92 1665.54 56.8329 1752.98 116.322 C 1768.8 127.237 1795.21 144.971 1807.86 158.346 C 1822.27 150.654 1838.31 148.577 1854.09 153.368 C 1869.84 158.149 1882.56 169.817 1890.1 184.295 C 1897.15 198.123 1898.42 214.19 1893.62 228.956 C 1892.44 232.631 1890.86 236.28 1889.16 239.748 C 1902.42 252.945 1913.9 269.809 1924.71 285.095 C 1980.64 364.111 2019.04 454.167 2037.32 549.23 C 2040.74 567.443 2043.17 585.826 2044.62 604.3 C 2045.58 615.791 2045.22 629.423 2048 640.532 L 2048 705.441 C 2045 720.909 2044.95 737.72 2043.68 753.488 C 2022.44 928.033 1933.55 1087.27 1796.13 1196.96 C 1783.25 1207.21 1769.78 1218.26 1755.62 1226.59 C 1759.92 1245.35 1759.92 1262.36 1749.26 1279.11 C 1740.56 1292.62 1726.81 1302.08 1711.08 1305.36 C 1695.22 1308.62 1678.72 1305.33 1665.33 1296.22 C 1660.61 1293.05 1656.61 1289.4 1652.8 1285.2 C 1572.27 1319.83 1488.45 1341.9 1400.45 1344.17 C 1334.44 1345.86 1268.2 1344.7 1202.16 1344.93 C 1183.02 1344.86 1163.88 1344.89 1144.74 1345.03 L 1087.91 1344.97 L 1063.41 1345.04 C 1058.01 1344.98 1038.87 1343.25 1035.3 1346 L 969.988 1346 C 945.512 1304.72 924.218 1260.99 901.503 1218.68 L 755.709 946.275 L 1366.5 945.175 C 1446.05 945.131 1511.94 919.759 1568.3 863.144 C 1623.29 807.91 1648.3 742.731 1648.08 665.401 C 1644.94 664.553 1641.8 663.695 1638.72 662.688 C 1627.99 659.249 1619.09 651.656 1614 641.605 C 1609.04 631.63 1608.31 620.076 1611.98 609.558 C 1615.97 598.426 1623.76 591.378 1634.21 586.43 C 1626.57 562.632 1614.51 540.523 1600.82 519.735 L 1600.32 519.925 C 1588.16 524.41 1576.24 525.18 1564.27 519.537 C 1554.47 514.981 1546.92 506.682 1543.31 496.503 C 1539.02 484.243 1541.22 472.588 1546.7 461.171 C 1522.96 441.623 1496.01 426.329 1467.06 415.965 C 1398.92 392.324 1317.35 393.931 1251.96 425.893 C 1181.75 460.21 1132.22 517.055 1107.19 590.948 C 1085.64 654.572 1091.52 729.151 1120.78 789.342 C 1129.69 807.661 1142.73 823.774 1151.49 841.861 L 1151.96 842.851 C 1130.6 841.578 1109.05 842.069 1087.65 842.062 L 990.166 842.068 L 715.805 842.242 C 686.906 725.328 686.454 603.544 720.255 487.566 C 725.148 470.779 729.842 453.962 736.357 437.712 C 754.337 392.867 774.504 350.076 800.417 309.183 C 857.357 220.273 934.695 146.236 1026 93.2247 C 1045.98 81.5374 1066.04 70.4492 1087.35 61.316 C 1095.61 55.5282 1107.76 52.4145 1117.13 48.5716 C 1190.57 18.9234 1268.79 2.84996 1347.98 1.13271 z M 1752.86 886.791 C 1757.32 900.795 1758.82 914.462 1751.89 927.997 C 1746.39 938.747 1737.68 945.417 1726.92 950.331 C 1725.4 998.428 1721.76 1046.62 1719.04 1094.67 C 1717.31 1125.16 1717.08 1158.51 1713.3 1188.59 C 1723.26 1192.42 1731.44 1196.51 1739.88 1203.22 L 1740.36 1203.62 C 1771.4 1180.22 1801.58 1156.05 1829.26 1128.7 C 1915.94 1042.5 1976.62 933.672 2004.39 814.63 C 2009.17 794.009 2012.33 772.528 2015.3 751.552 L 2015.7 748.668 L 2016.78 755.18 L 2017.89 755.76 C 2019.68 754.922 2021.85 753.332 2023.78 754.045 C 2025.74 754.772 2027.7 756.298 2029.46 757.439 L 2029.66 754.605 L 2031.27 753.958 C 2033.29 754.999 2035.98 756.888 2038.2 757.136 C 2039.75 756.327 2040.41 755.702 2041.42 754.277 L 2043.68 753.488 C 2044.95 737.72 2045 720.909 2048 705.441 L 2048 640.532 C 2045.22 629.423 2045.58 615.791 2044.62 604.3 C 2043.17 585.826 2040.74 567.443 2037.32 549.23 C 2019.04 454.167 1980.64 364.111 1924.71 285.095 C 1913.9 269.809 1902.42 252.945 1889.16 239.748 C 1890.86 236.28 1892.44 232.631 1893.62 228.956 C 1898.42 214.19 1897.15 198.123 1890.1 184.295 C 1882.56 169.817 1869.84 158.149 1854.09 153.368 C 1838.31 148.577 1822.27 150.654 1807.86 158.346 C 1795.21 144.971 1768.8 127.237 1752.98 116.322 C 1665.54 56.8329 1565.25 18.92 1460.32 5.69307 C 1437.6 2.87967 1414.88 1.93393 1392.03 1.04319 L 1347.98 1.13271 C 1268.79 2.84996 1190.57 18.9234 1117.13 48.5716 C 1107.76 52.4145 1095.61 55.5282 1087.35 61.316 C 1087.31 61.5241 1087.28 61.734 1087.23 61.9405 C 1086.14 66.7053 1078.55 69.3784 1081.59 74.6231 C 1082.05 75.4129 1082.94 76.1597 1083.58 76.776 C 1086.22 76.531 1088.12 75.378 1090.42 74.1257 L 1091.87 74.7005 C 1092.23 77.3876 1091.98 77.8264 1094.15 79.5526 C 1100 84.2154 1108.85 86.8498 1115.28 91.2493 C 1123.49 96.8634 1131.01 103.405 1139.04 109.242 L 1219.04 166.393 C 1221.39 168.064 1241.41 183.27 1242.32 183.606 C 1244.47 184.398 1246.31 182.852 1247.39 185.315 C 1250.65 192.705 1294.88 219.723 1304.11 226.218 C 1320.25 237.573 1335.86 250.013 1351.62 261.895 C 1361.86 269.623 1373.25 276.202 1383.69 283.802 C 1390.34 288.646 1396.44 294.197 1403.17 298.893 L 1482.64 355.456 C 1498.83 366.974 1516.95 378.347 1531.87 391.404 C 1536.82 395.74 1536.46 400.781 1540.3 404.997 L 1540.72 399.92 C 1542.24 399.523 1546.54 400.389 1547.02 399.384 C 1548.13 397.068 1547.82 393.1 1547.94 390.51 C 1550.74 399.562 1559.49 437.698 1566.65 441.103 C 1571.33 443.328 1577.76 442.568 1582.84 442.625 C 1600.24 442.82 1613.09 451.355 1620.15 467.48 C 1621.05 469.532 1621.65 471.741 1622.22 473.902 C 1636.26 474.878 1663.47 476.186 1676.21 480.026 C 1676 480.107 1675.8 480.19 1675.59 480.269 C 1673.64 481.001 1672.51 481.251 1670.45 481.016 C 1668.61 482.593 1668.26 484.651 1667.6 486.877 L 1665.8 488.232 C 1663.67 487.49 1662.29 486.271 1660.58 484.819 L 1659.32 485.946 L 1659.79 488.191 C 1663.12 489.91 1669.49 491.23 1671.13 494.58 C 1669.68 495.388 1669.05 494.9 1667.49 494.561 L 1667.25 496.85 L 1668.67 498.024 L 1671.44 497.752 L 1670.27 500.321 L 1670.76 501.575 C 1676.06 502.513 1674.35 505.425 1680.3 501.956 C 1682 502.704 1682.64 503.248 1683.25 505.074 C 1683.62 506.174 1683.76 507.422 1683.93 508.568 C 1663.55 505.972 1643.14 503.675 1622.7 501.677 C 1642.59 531.254 1651.08 552.064 1663.52 584.823 C 1669.04 587.567 1674.19 590.321 1679.26 593.881 C 1689.39 589.236 1698.76 582.371 1708.26 576.562 C 1719.43 569.738 1730.98 563.515 1742.2 556.764 C 1750.84 551.565 1760.05 545.507 1769.54 542.101 C 1769.15 545.43 1768.62 547.056 1765.9 549.282 C 1763.44 551.303 1761.68 551.867 1760.4 554.97 C 1760.69 558.085 1764.39 567.829 1765.83 569.892 C 1769.55 569.438 1771.66 569.405 1775.19 570.776 C 1756.75 581.891 1738.15 592.751 1719.41 603.355 C 1710.49 608.479 1701.67 614.16 1692.47 618.739 C 1691.77 634.69 1687.95 645.621 1675.96 656.61 C 1677.57 667.742 1677 679.385 1676.38 690.583 C 1672.87 748.483 1652.55 804.102 1617.91 850.627 C 1589.93 888.451 1553.35 919.075 1511.2 939.967 C 1538.6 933.624 1566.13 928.132 1593.59 922.102 C 1616.71 917.025 1639.77 911.323 1663.03 906.958 C 1665.33 892.05 1668.99 878.145 1681.93 868.866 C 1691.22 862.202 1702.93 859.942 1714.16 859.51 L 1794.77 589.82 C 1795.25 592.998 1794.99 595.722 1797.92 597.723 C 1802.51 600.865 1809.32 602.773 1814.79 603.671 C 1816.64 603.976 1818.84 603.469 1820.7 603.204 C 1807.4 652.551 1791.26 701.309 1776.55 750.261 C 1765.95 785.533 1756.85 821.878 1744.22 856.481 C 1789.06 807.993 1836.93 762.02 1883.71 715.404 C 1896.22 702.903 1908.66 690.333 1921.02 677.694 C 1926.58 672.061 1932.46 664.903 1938.8 660.182 C 1938.78 660.439 1938.77 660.696 1938.75 660.952 C 1937.88 672.325 1922.88 676.106 1932.37 687.552 C 1934.51 690.129 1937.42 691.935 1937.39 695.347 L 1935.53 697.63 L 1936.46 697.956 L 1937.59 697.127 L 1939.79 698.272 C 1941.06 697.348 1941.34 697.349 1942.92 697.228 C 1928.83 712.089 1913.79 726.182 1899.26 740.631 L 1822.04 817.946 L 1777.2 862.898 C 1769.32 870.811 1761.56 879.872 1752.86 886.791 z M 1355.19 1241.99 C 1363.47 1263.02 1369.71 1284.91 1377.19 1306.25 L 1380.65 1317.16 C 1481.57 1313.13 1546.69 1298.89 1640.28 1260.44 C 1637.57 1242.49 1639.97 1224.49 1651.15 1209.63 C 1660.07 1197.79 1672.2 1192.64 1685.86 1188.22 C 1685.72 1165.94 1687.85 1143.49 1689.06 1121.23 C 1692.11 1064.95 1696.55 1008.51 1698.3 952.191 L 1688.06 948.166 L 1394.76 1181.22 C 1397.05 1195.94 1396.73 1209.78 1387.73 1222.32 C 1379.81 1233.36 1368.19 1239.12 1355.19 1241.99 z M 1653.7 937.195 C 1615.92 945.989 1578.01 953.717 1540.15 962.069 C 1519.89 966.542 1496.74 973.72 1476.23 975.413 C 1453.6 1021.54 1428.46 1066.48 1404.45 1111.9 C 1396.69 1126.6 1387.07 1140.97 1380.38 1156.13 L 1380.83 1157.04 L 1382.6 1155.65 C 1411.95 1130.19 1442.91 1106.7 1473.29 1082.51 L 1600.73 980.678 C 1608.18 974.785 1653.51 941.404 1656.24 937.258 L 1653.7 937.195 z"/>
<path transform="translate(0,0)" fill="url(#Gradient2)" d="M 1347.98 1.13271 L 1392.03 1.04319 C 1414.88 1.93393 1437.6 2.87967 1460.32 5.69307 C 1565.25 18.92 1665.54 56.8329 1752.98 116.322 C 1768.8 127.237 1795.21 144.971 1807.86 158.346 C 1822.27 150.654 1838.31 148.577 1854.09 153.368 C 1869.84 158.149 1882.56 169.817 1890.1 184.295 C 1897.15 198.123 1898.42 214.19 1893.62 228.956 C 1892.44 232.631 1890.86 236.28 1889.16 239.748 C 1902.42 252.945 1913.9 269.809 1924.71 285.095 C 1980.64 364.111 2019.04 454.167 2037.32 549.23 C 2040.74 567.443 2043.17 585.826 2044.62 604.3 C 2045.58 615.791 2045.22 629.423 2048 640.532 L 2048 705.441 C 2045 720.909 2044.95 737.72 2043.68 753.488 L 2041.42 754.277 C 2040.41 755.702 2039.75 756.327 2038.2 757.136 C 2035.98 756.888 2033.29 754.999 2031.27 753.958 L 2029.66 754.605 L 2029.46 757.439 C 2027.7 756.298 2025.74 754.772 2023.78 754.045 C 2021.85 753.332 2019.68 754.922 2017.89 755.76 L 2016.78 755.18 L 2015.7 748.668 C 2017.57 726.006 2019.72 703.687 2020.01 680.915 C 2020.27 660.851 2018.89 641.138 2018.27 621.134 C 2001.5 640.218 1982.52 657.973 1964.47 675.863 C 1957.53 682.735 1950.63 691.43 1942.92 697.228 C 1941.34 697.349 1941.06 697.348 1939.79 698.272 L 1937.59 697.127 L 1936.46 697.956 L 1935.53 697.63 L 1937.39 695.347 C 1937.42 691.935 1934.51 690.129 1932.37 687.552 C 1922.88 676.106 1937.88 672.325 1938.75 660.952 C 1938.77 660.696 1938.78 660.439 1938.8 660.182 C 1946.25 655.122 1960.39 638.57 1967.93 630.936 C 1978.81 619.912 1990.27 609.489 2001.19 598.504 C 1961.06 582.692 1921.17 564.72 1881.77 547.133 C 1879.21 551.54 1876.16 555.637 1872.66 559.343 C 1862.73 569.825 1846.97 578.572 1832.19 578.594 C 1830.51 578.597 1829.42 578.643 1827.81 579.136 C 1824.28 585.734 1822.86 595.811 1820.7 603.204 C 1818.84 603.469 1816.64 603.976 1814.79 603.671 C 1809.32 602.773 1802.51 600.865 1797.92 597.723 C 1794.99 595.722 1795.25 592.998 1794.77 589.82 L 1800.45 573.163 C 1795.58 570.376 1791.11 567.282 1786.6 563.958 C 1782.91 566.37 1779.26 569.042 1775.19 570.776 C 1771.66 569.405 1769.55 569.438 1765.83 569.892 C 1764.39 567.829 1760.69 558.085 1760.4 554.97 C 1761.68 551.867 1763.44 551.303 1765.9 549.282 C 1768.62 547.056 1769.15 545.43 1769.54 542.101 C 1765.7 534.677 1764.23 525.822 1763.35 517.602 C 1737.29 513.386 1710.21 511.219 1683.93 508.568 C 1683.76 507.422 1683.62 506.174 1683.25 505.074 C 1682.64 503.248 1682 502.704 1680.3 501.956 C 1674.35 505.425 1676.06 502.513 1670.76 501.575 L 1670.27 500.321 L 1671.44 497.752 L 1668.67 498.024 L 1667.25 496.85 L 1667.49 494.561 C 1669.05 494.9 1669.68 495.388 1671.13 494.58 C 1669.49 491.23 1663.12 489.91 1659.79 488.191 L 1659.32 485.946 L 1660.58 484.819 C 1662.29 486.271 1663.67 487.49 1665.8 488.232 L 1667.6 486.877 C 1668.26 484.651 1668.61 482.593 1670.45 481.016 C 1672.51 481.251 1673.64 481.001 1675.59 480.269 C 1675.8 480.19 1676 480.107 1676.21 480.026 C 1685.94 479.831 1696.26 481.715 1705.92 482.84 C 1726.84 485.274 1747.86 488.316 1768.86 489.728 C 1771.23 484.387 1773.86 479.868 1777.35 475.175 C 1760.17 458.44 1743.89 440.668 1727.23 423.413 C 1671.44 365.626 1616.89 306.15 1559.86 249.628 C 1550.97 251.595 1541.76 251.953 1532.92 249.633 C 1527.27 258.225 1521.67 266.857 1515.62 275.175 C 1526.18 313.34 1539.78 351.832 1547.94 390.51 C 1547.82 393.1 1548.13 397.068 1547.02 399.384 C 1546.54 400.389 1542.24 399.523 1540.72 399.92 L 1540.3 404.997 C 1536.46 400.781 1536.82 395.74 1531.87 391.404 C 1516.95 378.347 1498.83 366.974 1482.64 355.456 L 1403.17 298.893 C 1396.44 294.197 1390.34 288.646 1383.69 283.802 C 1373.25 276.202 1361.86 269.623 1351.62 261.895 C 1335.86 250.013 1320.25 237.573 1304.11 226.218 C 1294.88 219.723 1250.65 192.705 1247.39 185.315 C 1246.31 182.852 1244.47 184.398 1242.32 183.606 C 1241.41 183.27 1221.39 168.064 1219.04 166.393 L 1139.04 109.242 C 1131.01 103.405 1123.49 96.8634 1115.28 91.2493 C 1108.85 86.8498 1100 84.2154 1094.15 79.5526 C 1091.98 77.8264 1092.23 77.3876 1091.87 74.7005 L 1090.42 74.1257 C 1088.12 75.378 1086.22 76.531 1083.58 76.776 C 1082.94 76.1597 1082.05 75.4129 1081.59 74.6231 C 1078.55 69.3784 1086.14 66.7053 1087.23 61.9405 C 1087.28 61.734 1087.31 61.5241 1087.35 61.316 C 1095.61 55.5282 1107.76 52.4145 1117.13 48.5716 C 1190.57 18.9234 1268.79 2.84996 1347.98 1.13271 z M 1582.06 231.908 L 1681.36 335.576 C 1697.77 352.583 1715.24 369.199 1730.78 386.953 C 1753.89 410.416 1776.53 434.364 1799.39 458.082 C 1805.99 455.238 1812.81 453.68 1819.78 452 L 1823.81 328.263 C 1824.34 308.542 1825.47 288.629 1825.09 268.911 C 1809.58 265.857 1796.07 257.701 1787.12 244.534 C 1783.65 239.436 1781.25 233.706 1779.06 227.97 L 1749.35 228.451 L 1653.06 230.513 C 1629.42 230.901 1605.66 230.653 1582.06 231.908 z M 1786.62 176.871 C 1717.41 121.502 1641.56 78.7473 1556.03 54.1573 C 1539.96 49.5369 1523.49 44.6852 1506.99 41.9123 C 1513.36 57.0895 1518.34 72.6898 1523.79 88.2024 C 1533.36 115.467 1542.92 142.91 1552.87 170.034 C 1564.98 172.989 1574.66 178.883 1581.19 189.759 C 1583.95 194.351 1585.77 198.618 1586.63 203.906 C 1605.93 203.916 1773.56 201.107 1777.64 199.026 L 1777.89 198.717 C 1780.05 191.071 1782.55 183.752 1786.62 176.871 z M 1870 260.363 C 1864.77 263.021 1859.63 265.795 1854.01 267.543 C 1853.39 330.012 1849.93 392.749 1847.88 455.209 C 1865.76 463.19 1878.55 473.056 1885.87 491.953 C 1889.57 501.503 1890.18 510.771 1890.53 520.883 C 1926.51 535.655 1962.22 551.062 1997.64 567.097 C 2002.54 568.96 2007.57 570.68 2012.32 572.879 C 1994.55 470.293 1959.92 382.552 1898.94 297.922 C 1893.05 289.753 1877.18 265.855 1870 260.363 z"/>
<path transform="translate(0,0)" fill="url(#Gradient1)" d="M 3.39241 61.7513 C 21.9745 62.0139 40.6848 64.4076 59.1914 66.1351 L 147.543 74.3055 L 270.039 85.2368 C 318.19 89.5614 372.33 94.1052 418.667 107.647 C 442.176 114.517 464.586 125.416 481.857 143.092 C 505.954 167.754 517.803 200.056 524.441 233.368 C 531.471 268.639 531.238 304.927 531.225 340.727 L 531.217 419.236 L 531.219 691.93 L 531.193 755.738 C 531.197 777.67 530.635 800.231 534.802 821.853 C 542.255 860.523 575.83 913.626 595.118 949.774 L 736.178 1214.07 L 780.256 1296.06 C 788.995 1312.25 799.443 1328.8 806.008 1346 L 585.17 1346 C 575.013 1343.01 559.814 1344.89 549.046 1344.95 L 521.938 1344.89 C 458.283 1342.39 394.184 1347.17 330.552 1344.2 C 278.762 1339.99 232.283 1317.47 198.456 1277.7 C 178.522 1254.3 164.735 1226.31 158.341 1196.25 C 153.328 1172.79 153.885 1149.83 153.88 1125.99 L 153.824 1054.07 L 152.739 672.814 L 152.094 529.525 C 152.059 480.194 153.51 430.453 149.925 381.244 C 142.279 276.291 109.734 109.964 3.39241 61.7513 z"/>
<path transform="translate(0,0)" fill="rgb(32,78,200)" fill-opacity="0.0156863" d="M 330.552 1344.2 C 394.184 1347.17 458.283 1342.39 521.938 1344.89 L 521.989 1346 L 330.156 1346 L 330.552 1344.2 z"/>
<path transform="translate(0,0)" fill="rgb(32,78,200)" fill-opacity="0.0156863" d="M 1202.16 1344.93 C 1268.2 1344.7 1334.44 1345.86 1400.45 1344.17 L 1400.84 1346 L 1202.04 1346 L 1202.16 1344.93 z"/>
<path transform="translate(0,0)" fill="rgb(32,78,200)" fill-opacity="0.105882" d="M 1144.74 1345.03 C 1163.88 1344.89 1183.02 1344.86 1202.16 1344.93 L 1202.04 1346 L 1144.92 1346 L 1144.74 1345.03 z"/>
<path transform="translate(0,0)" fill="rgb(32,78,200)" fill-opacity="0.380392" d="M 1087.91 1344.97 L 1144.74 1345.03 L 1144.92 1346 L 1087.98 1346 L 1087.91 1344.97 z"/>
<path transform="translate(0,0)" fill="rgb(69,215,254)" fill-opacity="0.294118" d="M 1347.65 0 L 1392.3 0 L 1392.03 1.04319 L 1347.98 1.13271 L 1347.65 0 z"/>
<path transform="translate(0,0)" fill="rgb(32,78,200)" fill-opacity="0.34902" d="M 549.046 1344.95 C 559.814 1344.89 575.013 1343.01 585.17 1346 L 549.009 1346 L 549.046 1344.95 z"/>
<path transform="translate(0,0)" fill="rgb(32,78,200)" fill-opacity="0.788235" d="M 1035.3 1346 C 1038.87 1343.25 1058.01 1344.98 1063.41 1345.04 L 1063.16 1346 L 1035.3 1346 z"/>
<path transform="translate(0,0)" fill="rgb(32,78,200)" fill-opacity="0.0627451" d="M 521.938 1344.89 L 549.046 1344.95 L 549.009 1346 L 521.989 1346 L 521.938 1344.89 z"/>
<path transform="translate(0,0)" fill="rgb(32,78,200)" fill-opacity="0.803922" d="M 1063.41 1345.04 L 1087.91 1344.97 L 1087.98 1346 L 1063.16 1346 L 1063.41 1345.04 z"/>
</svg>